# xmcd
#
# Track frame offsets:
#	150
#	11301
#	25599
#	38378
#	55389
#	68317
#	81100
#	91830
#	102648
#	113595
#	125275
#	140490
#	156312
#	169279
#	178606
#	190850
#	203798
#	217261
#	228986
#	244994
#
# Disc length: 3419 seconds
#
# Revision: 1
# Processed by: cddbd v1.5.2PL0 Copyright (c) Steve Scherf et al.
# Submitted via: audiograbber 1.82.02
#
DISCID=060d5914
DTITLE=Crystal Gayle - Love Songs (Import)
DYEAR=2004
DGENRE=Country
TTITLE0=Hello I Love You
TTITLE1=Cry Me A River
TTITLE2=Dreaming My Dreams With You
TTITLE3=Someday Soon
TTITLE4=I'll Do It All Over Again
TTITLE5=I Wanna Come Back to You
TTITLE6=Somebody Loves You
TTITLE7=It's All Right With Me
TTITLE8=Coming Closer
TTITLE9=Don't It Make My Brown Eyes Blue
TTITLE10=When I Dream
TTITLE11=I'll Get Over You
TTITLE12=Heart Mender
TTITLE13=Funny
TTITLE14=I Still Miss Someone
TTITLE15=Talking in Your Sleep
TTITLE16=Right in the Palm of Your Hand
TTITLE17=Beyond You
TTITLE18=Going Down Is Slow
TTITLE19=Woman's Heart (Is a Handy Palce to Be)
EXTD=Dream`Master
EXTT0=
EXTT1=
EXTT2=
EXTT3=
EXTT4=
EXTT5=
EXTT6=
EXTT7=
EXTT8=
EXTT9=
EXTT10=
EXTT11=
EXTT12=
EXTT13=
EXTT14=
EXTT15=
EXTT16=
EXTT17=
EXTT18=
EXTT19=
PLAYORDER=
